# xmcd
#
# Track frame offsets:
#	150
#	13461
#	29240
#	43294
#	56660
#	73571
#	87422
#	103339
#	116334
#	131239
#	146253
#	161880
#	175680
#	187093
#	198877
#	214188
#	229592
#	235205
#	252671
#	268249
#	291342
#
# Disc length: 4168 seconds
#
# Revision: 1
# Processed by: cddbd v1.5.2PL0 Copyright (c) Steve Scherf et al.
# Submitted via: audiograbber 1.83.01
#
DISCID=53104615
DTITLE=Country Hotdisc - Country Hotdisc 117
DYEAR=2008
DGENRE=Country
TTITLE0=Half A Hallelujah  - Brianie
TTITLE1=22 Hours Day  - Wayne Law
TTITLE2=Ruby´s Red Lips  - Bub Felts
TTITLE3=A Good Day  - Donna Boyd
TTITLE4=Free As A Bird  - Dave Parks 
TTITLE5=Peach Picking Time Down In Georgia  - Hallur Joensen
TTITLE6=Time  - Brenda Mulgrew and T J Stuart
TTITLE7=I Don´t Want To Put A Hold On You  - Berni Flint
TTITLE8=Green Country Stomp  - Big Bob Young
TTITLE9=Welcome To My World  - Colin James
TTITLE10=Unseen  - Katie Armiger
TTITLE11=In The Light Of Day  - Billy Yates
TTITLE12=Just The Way I Am  - Tracy K Houston
TTITLE13=Billy Walker Tribute  - Lynn Beckman
TTITLE14=Shades Of Blue  - Judy Weldon
TTITLE15=I Cannot Bear To See You  - Kerr Donnelly Band
TTITLE16=Narvel Felts Talk About Track 3 His Late Son Bob Felts  - Narvel Feltd
TTITLE17=Meet Me In Montana  - Marie Osmond and Dan Seals
TTITLE18=I´d Lie To You For Love  - David Allan Coe
TTITLE19=Hello In There  - The Bellamy Brothers
TTITLE20=Everything Thats Glitters - Dan Seals
EXTD=
EXTT0=
EXTT1=
EXTT2=
EXTT3=
EXTT4=
EXTT5=
EXTT6=
EXTT7=
EXTT8=
EXTT9=
EXTT10=
EXTT11=
EXTT12=
EXTT13=
EXTT14=
EXTT15=
EXTT16=
EXTT17=
EXTT18=
EXTT19=
EXTT20=
PLAYORDER=
